<?xml version="1.0" encoding="utf-8"?>
<!-- Generator: Adobe Illustrator 18.0.0, SVG Export Plug-In . SVG Version: 6.00 Build 0)  -->
<!DOCTYPE svg PUBLIC "-//W3C//DTD SVG 1.1//EN" "http://www.w3.org/Graphics/SVG/1.1/DTD/svg11.dtd">
<svg version="1.1" id="Layer_1" xmlns="http://www.w3.org/2000/svg" xmlns:xlink="http://www.w3.org/1999/xlink" x="0px" y="0px"
	 viewBox="0 0 168.4 30.1" enable-background="new 0 0 168.4 30.1" xml:space="preserve">
<g>
	<g>
		<g>
			<defs>
				<path id="SVGID_1_" d="M28.1,4H8.9C2.9,3.5,0.4,6.7,0,10.9c0,0.5-0.1,1,0,1.5c0,0.3,0,0.5,0,0.7l0,7.5L4.3,16
					c0-1.2,0.3-2.4,1-3.4c0.9-1.3,2.2-2.1,3.7-2.2c0.1,0,0.1,0,0.1,0c0,0,0,0,0,0c0.9-2.5,2.7-4.2,5.1-4.7c0.6-0.2,1.3-0.2,1.9-0.2
					c2.1,0,4,0.9,5.6,2.8c0.2,0,0.4,0,0.6,0c1.8,0,3.3,1,4,2.7c0.2,0,0.4,0,0.6,0c1.9,0,3.5,1.1,4.3,2.8l4.9-5.1v0l-8-8.5V4z"/>
			</defs>
			<clipPath id="SVGID_2_">
				<use xlink:href="#SVGID_1_"  overflow="visible"/>
			</clipPath>
			
				<linearGradient id="SVGID_3_" gradientUnits="userSpaceOnUse" x1="-36.0369" y1="138.653" x2="-35.0037" y2="138.653" gradientTransform="matrix(-1.6316 22.5458 -22.5458 -1.6316 3086.124 1037.3428)">
				<stop  offset="0" style="stop-color:#EA3527"/>
				<stop  offset="1" style="stop-color:#B32125"/>
			</linearGradient>
			<polygon clip-path="url(#SVGID_2_)" fill="url(#SVGID_3_)" points="0.2,-2.7 -1.4,20.4 35.9,23.3 37.5,0.1 			"/>
		</g>
		<g>
			<defs>
				<path id="SVGID_4_" d="M31.6,14.7c0.1,0.3,0.1,0.5,0.1,0.8c0,0.1,0,0.1,0,0.2l0.1,0.3l0,0.1c-0.1,2.7-2,4.8-4.5,5
					c-0.2,0-0.3,0-0.5,0c-0.1,0-0.2,0-0.3,0c-0.8,1.9-2.3,2.9-4.3,2.9l-0.1,0c-1,0-1.9-0.3-2.6-0.9c-0.9,0.9-2,1.5-3.3,1.6
					c-0.1,0-0.3,0-0.4,0c-1.9,0-3.6-1-4.5-2.7c-0.1-0.2-0.2-0.4-0.3-0.6c-0.5,0.1-0.9,0.2-1.4,0.2c-2.4,0-4.5-1.8-5.1-4.2L0,21.9v0
					l7.9,8.1l0-3.9h21l0,0c6.2-0.3,7.1-5.2,7.2-7.5l0,0V9.9L31.6,14.7z"/>
			</defs>
			<clipPath id="SVGID_5_">
				<use xlink:href="#SVGID_4_"  overflow="visible"/>
			</clipPath>
			
				<linearGradient id="SVGID_6_" gradientUnits="userSpaceOnUse" x1="-35.9503" y1="138.6722" x2="-34.9171" y2="138.6722" gradientTransform="matrix(-1.6086 22.2283 -22.2283 -1.6086 3043.5059 1030.6881)">
				<stop  offset="0" style="stop-color:#EA3527"/>
				<stop  offset="1" style="stop-color:#B32125"/>
			</linearGradient>
			<polygon clip-path="url(#SVGID_5_)" fill="url(#SVGID_6_)" points="0.2,7.2 -1.4,30 35.9,32.8 37.5,10 			"/>
		</g>
		<path fill="#CECECE" d="M26.1,11.9c-0.3,0.1-0.4,0-0.5-0.3c-0.6-1.8-2.2-2.8-4-2.4c-0.2,0-0.3-0.1-0.4-0.2c-1.8-2.2-4-3-6.7-2.4
			c-2.2,0.5-3.7,2-4.5,4.1c-0.2,0.5-0.5,0.6-0.9,0.7c-2.5,0.2-4.3,2.8-3.8,5.5c0.6,2.8,3.4,4.4,6,3.2c0.2-0.1,0.3-0.1,0.3,0.1
			c0.1,0.4,0.3,0.8,0.5,1.2c0.9,1.6,2.4,2.4,4.1,2.2c1.3-0.1,2.2-0.7,3-1.7c0.2-0.2,0.3-0.2,0.5,0c0.7,0.7,1.6,1,2.6,1
			c1.7-0.1,2.9-0.9,3.6-2.5C26,20,26.2,20,26.5,20c0.2,0,0.5,0,0.7,0c2-0.1,3.5-1.9,3.6-4.1c0-0.1-0.1-0.3-0.1-0.4
			C30.6,13.2,28.4,11.4,26.1,11.9"/>
	</g>
	<g>
		<path fill-rule="evenodd" clip-rule="evenodd" fill="#2B3D52" d="M137.6,16.9c0-3,0-6,0-8.9c0-0.4,0.1-0.5,0.5-0.5
			c1.7,0,3.4,0,5.1,0c0.4,0,0.5,0.1,0.4,0.5c0,0.4,0,0.8,0,1.2c0,0.1-0.1,0.2,0.1,0.3c0.1,0.1,0.2-0.1,0.3-0.1
			c0.9-0.6,1.8-1.3,2.8-1.7c2.4-1,4.7-0.9,6.9,0.6c0.6,0.4,1.1,1,1.4,1.6c0.2,0.4,0.3,0.3,0.6,0.1c1.2-1,2.5-2,4.1-2.5
			c2.3-0.8,4.6-0.7,6.6,0.9c1.1,0.8,1.6,2,1.9,3.3c0.2,0.7,0.2,1.4,0.2,2.2c0,4,0,8,0,12c0,0.4-0.1,0.5-0.5,0.5c-1.7,0-3.4,0-5,0
			c-0.4,0-0.5-0.1-0.5-0.5c0-3.6,0-7.1,0-10.7c0-0.6-0.1-1.1-0.2-1.7c-0.3-1.1-1.1-1.6-2.4-1.7c-1.3-0.1-2.4,0.4-3.5,1
			c-0.3,0.1-0.2,0.4-0.2,0.6c0,4.1,0,8.2,0,12.3c0,0.7,0,0.6-0.6,0.6c-1.7,0-3.3,0-5,0c-0.4,0-0.5-0.1-0.5-0.5c0-3.5,0-7.1,0-10.6
			c0-0.6-0.1-1.1-0.2-1.7c-0.3-1.1-1.1-1.6-2.4-1.7c-1.3-0.1-2.4,0.4-3.5,1c-0.3,0.2-0.3,0.4-0.3,0.7c0,3.9,0,7.7,0,11.6
			c0,0.4,0.2,0.9-0.1,1.2c-0.3,0.3-0.8,0.1-1.2,0.1c-1.4,0-2.9,0-4.3,0c-0.4,0-0.5-0.1-0.5-0.5C137.6,22.9,137.6,19.9,137.6,16.9z"
			/>
		<path fill-rule="evenodd" clip-rule="evenodd" fill="#2B3D52" d="M97.7,22.8c0-0.7,0-1.3,0-2c0-0.2-0.1-0.4,0.1-0.5
			c0.2-0.1,0.4-0.1,0.6,0.1c0.7,0.5,1.5,0.9,2.3,1.3c2.2,0.9,4.5,1.3,6.9,0.9c0.4-0.1,0.7-0.2,1-0.4c0.8-0.6,0.7-1.6-0.2-2
			c-0.8-0.4-1.7-0.5-2.6-0.7c-1.6-0.3-3.1-0.5-4.6-1.1c-2.7-1.1-4-3.7-3.3-6.5c0.4-1.5,1.5-2.6,2.8-3.4c1.5-0.9,3.2-1.3,5-1.5
			c2.8-0.3,5.5,0.1,8.1,1c0.4,0.1,0.6,0.3,0.6,0.8c0,1.2,0,2.5,0,3.7c0,0.2,0.1,0.4-0.1,0.5c-0.2,0.1-0.4,0-0.7-0.1
			c-0.7-0.5-1.5-0.9-2.3-1.2c-1.9-0.7-3.8-1-5.7-0.6c-0.3,0.1-0.7,0.2-1,0.3c-0.4,0.2-0.7,0.5-0.7,1c0,0.5,0.3,0.9,0.7,1.1
			c0.8,0.4,1.7,0.5,2.6,0.7c1.5,0.3,3,0.5,4.4,1c1.4,0.5,2.6,1.3,3.2,2.8c1,2.4,0.4,5.1-1.9,6.8c-1.6,1.2-3.5,1.7-5.5,1.9
			c-1.4,0.1-2.8,0.1-4.2,0c-1.8-0.2-3.6-0.6-5.4-1.3c-0.2-0.1-0.3-0.2-0.3-0.5C97.7,24.3,97.7,23.5,97.7,22.8z"/>
		<path fill-rule="evenodd" clip-rule="evenodd" fill="#2B3D52" d="M125.3,18.9c0-2.3,0-4.5,0-6.8c0-0.4-0.1-0.6-0.5-0.6
			c-0.6,0-1.1,0-1.7,0c-0.3,0-0.4-0.1-0.4-0.3c0-1.1,0-2.3,0-3.4c0-0.3,0.1-0.4,0.4-0.4c0.6,0,1.2,0,1.8,0c0.3,0,0.4-0.1,0.4-0.4
			c0.1-1.1,0.1-2.3,0.5-3.3c0.7-1.8,2-2.8,3.8-3.4c1.7-0.5,3.3-0.4,5-0.3c0.7,0.1,1.4,0.1,2.1,0.2c0.3,0,0.3,0.1,0.3,0.4
			c0,1.2,0,2.5,0,3.7c0,0.5-0.3,0.3-0.5,0.3c-0.5-0.1-1-0.3-1.5-0.4c-0.7-0.1-1.5-0.1-2.2,0.1c-1,0.2-1.4,0.8-1.6,1.8
			c-0.2,1.3-0.2,1.3,1.1,1.3c1,0,2,0,3,0c0.3,0,0.5,0.1,0.5,0.5c0,1.1,0,2.1,0,3.2c0,0.3-0.1,0.5-0.4,0.4c-1.2,0-2.4,0-3.5,0
			c-0.4,0-0.5,0.1-0.5,0.5c0,4.5,0,9.1,0,13.7c0,0.4-0.1,0.6-0.6,0.6c-1.7,0-3.4,0-5.1,0c-0.4,0-0.4-0.1-0.4-0.4
			C125.3,23.5,125.3,21.2,125.3,18.9z"/>
		<path fill-rule="evenodd" clip-rule="evenodd" fill="#2B3D52" d="M45.4,18.9c0-2.3,0-4.5,0-6.8c0-0.5-0.1-0.6-0.6-0.6
			c-0.5,0-1.1,0-1.6,0c-0.3,0-0.4-0.1-0.4-0.3c0-1.1,0-2.3,0-3.4c0-0.2,0.1-0.3,0.3-0.3c0.6,0,1.2,0,1.8,0c0.3,0,0.4-0.1,0.4-0.4
			c0.1-1.1,0.1-2.2,0.5-3.2c0.7-1.9,2.2-3.1,4.1-3.5c1.5-0.4,3.1-0.4,4.7-0.2c0.7,0.1,1.4,0.1,2.1,0.2c0.3,0,0.4,0.2,0.4,0.5
			c0,1.1,0,2.3,0,3.4c0,0.5-0.1,0.6-0.6,0.4c-0.5-0.1-1-0.3-1.6-0.4c-0.8-0.1-1.5-0.1-2.3,0.1c-0.8,0.2-1.2,0.7-1.4,1.4
			c-0.1,0.4-0.1,0.8-0.2,1.2c-0.1,0.3,0.1,0.4,0.4,0.4c1.3,0,2.5,0,3.8,0c0.3,0,0.5,0.1,0.5,0.5c0,1.1,0,2.1,0,3.2
			c0,0.3-0.1,0.5-0.4,0.5c-1.2,0-2.4,0-3.6,0c-0.4,0-0.5,0.1-0.5,0.5c0,4.6,0,9.1,0,13.7c0,0.4-0.1,0.6-0.6,0.6c-1.7,0-3.4,0-5.1,0
			c-0.4,0-0.4-0.1-0.4-0.4C45.4,23.5,45.4,21.2,45.4,18.9z"/>
		<path fill-rule="evenodd" clip-rule="evenodd" fill="#2B3D52" d="M74.5,13.3c0,4.2,0,8.3,0,12.5c0,0.5-0.1,0.6-0.6,0.6
			c-1.6,0-3.3,0-4.9,0c-0.4,0-0.5-0.1-0.5-0.5c0-8.4,0-16.8,0-25.2c0-0.4,0.1-0.5,0.5-0.5c1.7,0,3.3,0,5,0c0.4,0,0.5,0.1,0.5,0.6
			C74.5,4.9,74.5,9.1,74.5,13.3z"/>
		<path fill-rule="evenodd" clip-rule="evenodd" fill="#2B3D52" d="M59.8,16.9c0-3,0-5.9,0-8.9c0-0.4,0.1-0.5,0.5-0.5
			c1.7,0,3.4,0,5.1,0c0.3,0,0.5,0.1,0.5,0.4c0,6,0,12,0,18c0,0.3-0.1,0.4-0.4,0.4c-1.7,0-3.4,0-5.2,0c-0.4,0-0.4-0.1-0.4-0.5
			C59.8,22.8,59.8,19.8,59.8,16.9z"/>
		<path fill-rule="evenodd" clip-rule="evenodd" fill="#2B3D52" d="M117.1,23c0-0.9,0-1.9,0-2.8c0-0.3,0.1-0.5,0.4-0.5
			c1.8,0,3.6,0,5.4,0c0.3,0,0.5,0.1,0.5,0.4c0,1.9,0,3.8,0,5.8c0,0.4-0.1,0.4-0.5,0.4c-1.8,0-3.6,0-5.3,0c-0.4,0-0.5-0.1-0.5-0.5
			C117.1,24.9,117.1,23.9,117.1,23z"/>
		<path fill-rule="evenodd" clip-rule="evenodd" fill="#2B3D52" d="M62.8,0.2c0.9,0,1.8,0,2.7,0c0.3,0,0.4,0.1,0.4,0.4
			c0,1.3,0,2.5,0,3.8c0,0.3-0.1,0.4-0.4,0.4c-1.8,0-3.7,0-5.5,0c-0.3,0-0.4-0.1-0.4-0.4c0-1.3,0-2.5,0-3.8c0-0.3,0.1-0.4,0.4-0.4
			C61,0.2,61.9,0.2,62.8,0.2z"/>
		<path fill="#2B3D52" d="M96.1,13.1c-0.7-3-2.4-5-5.5-5.8c-2.8-0.7-5.5-0.6-8.2,0.4c-2.7,1-4.6,2.9-5.5,5.7
			c-0.6,1.9-0.7,3.9-0.3,5.9c0.4,2.5,1.7,4.5,3.9,5.8c2,1.2,4.2,1.6,6.5,1.8c3,0.2,5.9-0.3,8.7-1.4c0.3-0.1,0.4-0.2,0.4-0.5
			c0-1.3,0-2.7,0-4c0-0.5-0.3-0.6-0.7-0.5c-0.1,0-0.2,0.1-0.3,0.2c-2.7,1.8-5.6,2.5-8.8,1.7c-1.9-0.4-3.3-1.8-3.6-3.7
			c-0.1-0.6-0.1-0.6,0.5-0.6c2.1,0,4.2,0,6.3,0c2.2,0,4.3,0,6.5,0c0.2,0,0.4,0.1,0.4-0.3C96.4,16.2,96.4,14.6,96.1,13.1z M89.9,14.5
			c-1.2,0-2.4,0-3.5,0c-1.2,0-2.4,0-3.5,0c-0.3,0-0.3-0.1-0.3-0.4c0.2-2.2,1.7-3.2,3.7-3.4c1-0.1,2.1,0,2.9,0.8
			c0.8,0.7,1,1.7,1.1,2.7C90.3,14.5,90.1,14.5,89.9,14.5z"/>
	</g>
</g>
</svg>
